<?xml version="1.0" encoding="utf-8"?>
<!-- Generator: Adobe Illustrator 15.0.0, SVG Export Plug-In . SVG Version: 6.00 Build 0)  -->
<!DOCTYPE svg PUBLIC "-//W3C//DTD SVG 1.1//EN" "http://www.w3.org/Graphics/SVG/1.1/DTD/svg11.dtd">
<svg version="1.1" id="Layer_1" xmlns="http://www.w3.org/2000/svg" xmlns:xlink="http://www.w3.org/1999/xlink" x="0px" y="0px"
	 width="71.933px" height="154.807px" viewBox="0 0 71.933 154.807" enable-background="new 0 0 71.933 154.807"
	 xml:space="preserve">
<polyline fill="#2D296B" points="15.74,146.45 15.74,134.173 6.332,134.173 6.332,127.949 0.173,127.949 0.173,140.089 
	9.586,140.089 9.586,144.676 3.613,154.242 10.877,154.242 "/>
<polyline fill="#2D296B" points="35.062,140.194 35.062,134.17 17.314,134.17 17.314,140.194 25.996,140.194 25.996,154.236 
	32.155,154.236 32.155,140.194 "/>
<g>
	<g>
		<polyline fill="#2D296B" points="48.81,154.239 48.81,138.287 44.925,134.173 36.905,134.173 36.905,140.123 42.65,140.123 
			42.65,143.369 36.211,148.651 36.211,154.807 38.168,154.807 42.842,149.858 42.937,149.858 43.282,154.239 		"/>
	</g>
</g>
<polyline fill="#2D296B" points="71.93,154.239 71.93,138.287 68.048,134.173 51.212,134.173 51.212,140.089 53.963,140.089 
	51.464,154.239 58.034,154.239 60.088,140.089 65.776,140.089 65.776,148.287 62.017,148.287 62.017,154.239 "/>
<polyline fill="#2D296B" points="0,122.693 5.929,114.543 65.996,114.543 71.933,122.693 "/>
<rect x="15.661" y="91.632" fill="#2D296B" width="16.882" height="8.15"/>
<rect x="39.384" y="91.632" fill="#2D296B" width="16.885" height="8.15"/>
<path fill="#2D296B" d="M56.266,88.332H39.373c-0.12-1.897-1.601-3.39-3.408-3.39s-3.288,1.493-3.411,3.39H15.661v-8.153h40.604"/>
<polyline fill="#2D296B" points="11.438,68.725 32.543,68.725 32.543,76.873 15.664,76.873 "/>
<polyline fill="#2D296B" points="39.384,68.725 60.489,68.725 56.266,76.873 39.384,76.873 "/>
<path fill="#2D296B" d="M5.405,57.271h9.19v3.646h4.7v-3.646h7.978v3.646h4.702v-3.646h7.978v3.646h4.703v-3.646h7.979v3.646h4.703
	v-3.646h9.185l-4.221,8.149H39.384c0-2.012-1.53-3.646-3.422-3.646c-1.886,0-3.419,1.633-3.419,3.646H9.625"/>
<polyline fill="#2D296B" points="16.945,0 24.317,0 24.317,3.858 26.882,3.858 26.882,0 34.684,0 34.684,3.858 37.249,3.858 
	37.249,0 45.048,0 45.048,3.858 47.612,3.858 47.612,0 54.985,0 54.985,8.153 16.945,8.153 "/>
<polyline fill="#2D296B" points="15.661,34.363 56.266,34.363 52.046,42.519 19.885,42.519 "/>
<rect x="19.885" y="45.817" fill="#2D296B" width="32.163" height="8.15"/>
<rect x="22.074" y="22.905" fill="#2D296B" width="27.783" height="8.151"/>
<rect x="22.074" y="11.451" fill="#2D296B" width="27.783" height="8.152"/>
<polyline fill="#2D296B" points="60.916,111.239 8.449,111.239 14.383,103.086 57.547,103.086 63.481,111.239 "/>
</svg>
